#!OML:ASF H:\Male1\Project 1\Capture day 1\Session 1\Male1.ASF
:FULLY-SPECIFIED
:DEGREES
422
root -1.45833 15.2099 -3.14576 0.948702 -42.7285 0.627981
lowerback 15.8567 1.76199 3.62414
upperback 12.5477 2.20279 3.9466
thorax 4.53521 1.00104 1.87591
lowerneck -7.21457 -8.30619 -2.57716
upperneck 2.884 -11.88 16.1616
head 3.21922 -5.4607 4.64022
rclavicle 2.54444e-014 1.59028e-014
rhumerus -1.4429 21.4909 -76.6506
rradius 53.3613
rwrist -73.5389
rhand -31.6733 -26.83
rfingers 7.12502
rthumb -4.93329 -56.7525
lclavicle 2.54444e-014 1.59028e-014
lhumerus -13.3359 -43.135 88.868
lradius 66.3769
lwrist 24.0814
lhand -17.3782 32.2628
lfingers 7.12502
lthumb 8.87037 62.0564
rfemur -16.4413 -0.36794 24.4296
rtibia 35.0593
rfoot -25.8489 -25.2597
rtoes -22.4959
lfemur -18.7369 -14.049 -21.0872
ltibia 33.9478
lfoot -17.6593 14.0841
ltoes -11.5335
423
root -1.51016 15.1916 -3.1151 0.512227 -43.4977 1.01851
lowerback 15.7501 1.95852 2.91971
upperback 12.5248 2.38594 3.68986
thorax 4.53528 1.05797 1.97753
lowerneck -7.16393 -8.16435 -2.41185
upperneck 3.16793 -11.7493 16.1959
head 3.27557 -5.38087 4.63272
rclavicle 1.20066e-013 -6.52014e-014
rhumerus -3.32577 22.987 -77.9558
rradius 55.2012
rwrist -74.56
rhand -32.2089 -27.0352
rfingers 7.12502
rthumb -5.45045 -56.9452
lclavicle 1.20066e-013 -6.52014e-014
lhumerus -16.5982 -42.3302 88.7761
lradius 69.547
lwrist 23.8342
lhand -17.2648 32.8046
lfingers 7.12502
lthumb 8.97981 62.5935
rfemur -17.1116 -1.45705 24.1196
rtibia 36.7122
rfoot -25.0973 -23.9319
rtoes -24.2051
lfemur -17.9683 -13.5194 -21.4034
ltibia 33.683
lfoot -17.9852 14.456
ltoes -11.1112
424
root -1.56086 15.1782 -3.08768 0.0498908 -44.2119 1.51993
lowerback 15.6871 2.14415 2.26495
upperback 12.4884 2.56508 3.40253
thorax 4.50095 1.11778 2.01861
lowerneck -7.1671 -8.05586 -2.30317
upperneck 3.4217 -11.6585 16.2631
head 3.34154 -5.31937 4.63929
rclavicle 4.6118e-014 -5.08889e-014
rhumerus -5.27139 24.3078 -79.3735
rradius 57.0932
rwrist -75.4597
rhand -32.793 -27.1557
rfingers 7.12502
rthumb -6.01441 -57.0503
lclavicle 4.6118e-014 -5.08889e-014
lhumerus -19.8627 -41.5952 88.5658
lradius 72.7883
lwrist 23.6254
lhand -17.1314 33.2304
lfingers 7.12502
lthumb 9.10856 63.0137
rfemur -17.9991 -2.53434 23.7137
rtibia 38.5805
rfoot -24.2207 -22.6277
rtoes -26.1972
lfemur -17.3209 -12.7172 -21.7701
ltibia 33.4006
lfoot -18.3702 14.5064
ltoes -11.0191
425
root -1.61007 15.1708 -3.06246 -0.362248 -44.8166 2.02309
lowerback 15.6575 2.2976 1.76779
upperback 12.44 2.72122 3.11356
thorax 4.44492 1.17697 1.97172
lowerneck -7.21118 -7.98244 -2.22646
upperneck 3.62359 -11.6056 16.3278
head 3.40428 -5.27771 4.64642
rclavicle -3.97569e-014 1.74931e-014
rhumerus -7.26859 25.4863 -80.8528
rradius 59.0399
rwrist -76.2295
rhand -33.4115 -27.198
rfingers 7.12502
rthumb -6.61143 -57.0748
lclavicle -3.97569e-014 1.74931e-014
lhumerus -23.1149 -40.9213 88.2638
lradius 76.076
lwrist 23.5036
lhand -16.9938 33.4977
lfingers 7.12502
lthumb 9.24134 63.2752
rfemur -19.0331 -3.61877 23.2915
rtibia 40.5626
rfoot -23.2576 -21.3549
rtoes -28.3968
lfemur -16.7895 -11.8018 -22.1063
ltibia 33.0876
lfoot -18.5973 14.1734
ltoes -10.5155
426
root -1.65803 15.169 -3.03865 -0.650225 -45.3027 2.42489
lowerback 15.6396 2.40652 1.47331
upperback 12.3869 2.84005 2.86422
thorax 4.38809 1.22922 1.85772
lowerneck -7.27838 -7.93295 -2.18027
upperneck 3.76366 -11.5706 16.3633
head 3.454 -5.24838 4.64814
rclavicle 3.73715e-014 -4.45278e-014
rhumerus -9.27651 26.5948 -82.3275
rradius 61.0216
rwrist -76.8833
rhand -34.0102 -27.1958
rfingers 7.12502
rthumb -7.18943 -57.0537
lclavicle 3.73715e-014 -4.45278e-014
lhumerus -26.348 -40.2393 87.9166
lradius 79.3835
lwrist 23.4522
lhand -16.8459 33.6437
lfingers 7.12502
lthumb 9.38406 63.4148
rfemur -20.1411 -4.68416 22.9202
rtibia 42.5439
rfoot -22.2792 -20.1306
rtoes -30.5985
lfemur -16.3484 -10.9325 -22.3453
ltibia 32.7438
lfoot -18.6771 13.9023
ltoes -10.7689
427
root -1.70579 15.172 -3.01642 -0.820724 -45.7012 2.69004
lowerback 15.6462 2.48537 1.34463
upperback 12.3439 2.93484 2.68346
thorax 4.33649 1.27684 1.726
lowerneck -7.35355 -7.8984 -2.14432
upperneck 3.84729 -11.542 16.3526
head 3.48625 -5.22631 4.63745
rclavicle 5.32743e-014 -1.59028e-014
rhumerus -11.2494 27.6871 -83.7423
rradius 62.9976
rwrist -77.4533
rhand -34.5204 -27.1767
rfingers 7.12502
rthumb -7.68184 -57.0172
lclavicle 5.32743e-014 -1.59028e-014
lhumerus -29.5312 -39.5167 87.5637
lradius 82.6632
lwrist 23.4278
lhand -16.699 33.7489
lfingers 7.12502
lthumb 9.52574 63.5136
rfemur -21.2252 -5.65331 22.6096
rtibia 44.4049
rfoot -21.3967 -19.0005
rtoes -32.4664
lfemur -15.9339 -10.1816 -22.4731
ltibia 32.3708
lfoot -18.6585 13.7331
ltoes -11.4952
428
root -1.75483 15.1787 -2.99634 -0.915514 -46.065 2.84807
lowerback 15.6685 2.55747 1.27343
upperback 12.3271 3.02266 2.59196
thorax 4.30503 1.31984 1.6575
lowerneck -7.42528 -7.8615 -2.03368
upperneck 3.87169 -11.4976 16.2306
head 3.48698 -5.20241 4.58347
rclavicle -4.77083e-015 -4.29375e-014
rhumerus -13.1301 28.8199 -85.0442
rradius 64.9176
rwrist -77.9535
rhand -34.9051 -27.1691
rfingers 7.12502
rthumb -8.05321 -56.9957
lclavicle -4.77083e-015 -4.29375e-014
lhumerus -32.6159 -38.7028 87.2454
lradius 85.8492
lwrist 23.3794
lhand -16.5771 33.8589
lfingers 7.12502
lthumb 9.64341 63.6181
rfemur -22.2176 -6.42991 22.3182
rtibia 46.0346
rfoot -20.7073 -18.0201
rtoes -33.6114
lfemur -15.4965 -9.5948 -22.514
ltibia 31.9562
lfoot -18.6044 13.676
ltoes -12.2736
429
root -1.80604 15.1888 -2.9786 -0.993113 -46.4094 2.9672
lowerback 15.7153 2.63072 1.19734
upperback 12.3354 3.10773 2.58065
thorax 4.28427 1.35671 1.67637
lowerneck -7.48607 -7.82707 -1.96629
upperneck 3.86912 -11.447 16.1042
head 3.47945 -5.17812 4.53626
rclavicle 1.66979e-014 1.59028e-015
rhumerus -14.8973 30.0036 -86.2149
rradius 66.74
rwrist -78.4071
rhand -35.2188 -27.1291
rfingers 7.12502
rthumb -8.35593 -56.9438
lclavicle 1.66979e-014 1.59028e-015
lhumerus -35.5669 -37.786 86.9954
lradius 88.881
lwrist 23.2833
lhand -16.4792 33.9744
lfingers 7.12502
lthumb 9.73788 63.7293
rfemur -23.0763 -6.96666 21.9735
rtibia 47.3334
rfoot -20.2158 -17.2915
rtoes -34.086
lfemur -15.0019 -9.21104 -22.5203
ltibia 31.4739
lfoot -18.5485 13.7374
ltoes -12.7956
430
root -1.86015 15.2025 -2.96305 -1.0894 -46.7425 3.09805
lowerback 15.7685 2.70493 1.06009
upperback 12.3766 3.18309 2.64213
thorax 4.28896 1.38047 1.80797
lowerneck -7.53887 -7.78489 -1.94157
upperneck 3.83756 -11.3763 15.9707
head 3.46202 -5.14661 4.49592
rclavicle 1.09729e-013 -3.49861e-014
rhumerus -16.5074 31.2631 -87.2223
rradius 68.4282
rwrist -78.8104
rhand -35.4891 -27.0655
rfingers 7.12502
rthumb -8.61677 -56.8697
lclavicle 1.09729e-013 -3.49861e-014
lhumerus -38.3288 -36.7479 86.8189
lradius 91.7041
lwrist 23.1593
lhand -16.4072 34.0923
lfingers 7.12502
lthumb 9.80733 63.8439
rfemur -23.7831 -7.25425 21.5229
rtibia 48.2174
rfoot -19.8995 -16.892
rtoes -34.0203
lfemur -14.4297 -9.02988 -22.5292
ltibia 30.8964
lfoot -18.4936 13.9208
ltoes -12.9756
431
root -1.9167 15.2193 -2.94821 -1.20642 -46.9849 3.21765
lowerback 15.8681 2.74651 0.967753
upperback 12.432 3.21916 2.74332
thorax 4.28642 1.38516 1.95962
lowerneck -7.58696 -7.75033 -1.95137
upperneck 3.80756 -11.3143 15.8592
head 3.44854 -5.11913 4.46714
rclavicle 1.82882e-014 5.08889e-014
rhumerus -17.9834 32.5358 -88.0865
rradius 69.9906
rwrist -79.2095
rhand -35.7937 -26.9979
rfingers 7.12502
rthumb -8.91077 -56.7898
lclavicle 1.82882e-014 5.08889e-014
lhumerus -40.8992 -35.6762 86.7027
lradius 94.2985
lwrist 23.0693
lhand -16.3552 34.2068
lfingers 7.12502
lthumb 9.85746 63.9561
rfemur -24.2959 -7.39762 20.9625
rtibia 48.6324
rfoot -19.7306 -16.8573
rtoes -33.5455
lfemur -13.7553 -9.08859 -22.5362
ltibia 30.2026
lfoot -18.4259 14.2004
ltoes -12.8723
